<svg width="100" height="100" viewBox="0 0 188 188" fill="none" xmlns="http://www.w3.org/2000/svg">
<circle cx="94" cy="94" r="94" fill="#656ED3"/>
<path d="M70.5332 78.5492C70.5332 65.5891 81.0404 55.0819 94.0005 55.0819C106.961 55.0819 117.468 65.5891 117.468 78.5492C117.468 97.327 101.114 101.803 95.4877 122.799L94.0005 128.349L92.5132 122.799C86.8873 101.803 70.5332 97.327 70.5332 78.5492ZM83.7938 129.836H104.207V132.918H83.7938V129.836ZM94.0005 67.9938C99.8295 67.9938 104.557 72.7202 104.557 78.5492C104.557 84.3791 99.8295 89.1055 94.0005 89.1055C88.1715 89.1055 83.4442 84.3782 83.4442 78.5492C83.4442 72.7202 88.1715 67.9938 94.0005 67.9938ZM94.0005 71.076C89.8732 71.076 86.5273 74.4219 86.5273 78.5492C86.5273 82.6774 89.8732 86.0223 94.0005 86.0223C98.1278 86.0223 101.474 82.6774 101.474 78.5492C101.474 74.4219 98.1278 71.076 94.0005 71.076ZM114.386 78.5492C114.386 67.2908 105.259 58.1641 94.0005 58.1641C82.7421 58.1641 73.6154 67.2908 73.6154 78.5492C73.6154 94.4838 87.3617 99.6571 94.0005 117.358C100.639 99.6571 114.386 94.4828 114.386 78.5492Z" fill="white"/>
</svg>
