<svg width="64" height="59" viewBox="0 0 64 59" fill="none" xmlns="http://www.w3.org/2000/svg">
<path d="M21.2 43.5125C18.3398 43.5125 16 45.6695 16 48.3064C16 50.9432 18.3398 53.1001 21.2 53.1001C24.0603 53.1001 26.4001 50.9432 26.4001 48.3064C26.4 45.6694 24.0601 43.5125 21.2 43.5125ZM6 5.90002V10.6938H11.2L20.5604 28.1728L16.6469 34.0444C16.2571 34.6436 15.9969 35.4828 15.9969 36.322C15.9969 39.5313 18.375 41.1158 21.6 41.1158H52V36.5064H22.2366C21.8469 36.5064 21.5866 36.2665 21.5866 35.9072C21.5866 35.7878 21.8625 35.308 21.8625 35.308L24.4603 31.5283H43.8295C45.7796 31.5283 47.4705 30.5699 48.3795 29.012L57.7397 14.1698C57.8944 13.8862 58 13.4501 58 12.9715C58 11.6525 56.8295 10.6939 55.4 10.6939H16.9205L14.45 5.90002H6ZM46.7999 43.5125C43.9396 43.5125 41.5999 45.6695 41.5999 48.3064C41.5999 50.9432 43.9396 53.1001 46.7999 53.1001C49.6601 53.1001 52 50.9431 52 48.3063C52 45.6694 49.6601 43.5125 46.7999 43.5125Z" fill="white"/>
<path d="M21.2 43.6125C18.3398 43.6125 16 45.7695 16 48.4064C16 51.0432 18.3398 53.2001 21.2 53.2001C24.0603 53.2001 26.4001 51.0432 26.4001 48.4064C26.4 45.7693 24.0601 43.6125 21.2 43.6125ZM6 6V10.7937H11.2L20.5604 28.2727L16.6469 34.1444C16.2571 34.7436 15.9969 35.5827 15.9969 36.422C15.9969 39.6313 18.375 41.2157 21.6 41.2157H52V36.6064H22.2366C21.8469 36.6064 21.5866 36.3664 21.5866 36.0071C21.5866 35.8878 21.8625 35.4079 21.8625 35.4079L24.4603 31.6282H43.8295C45.7796 31.6282 47.4705 30.6698 48.3795 29.112L57.7397 14.2698C57.8944 13.9862 58 13.55 58 13.0715C58 11.7525 56.8295 10.7939 55.4 10.7939H16.9205L14.45 6H6ZM46.7999 43.6125C43.9396 43.6125 41.5999 45.7695 41.5999 48.4064C41.5999 51.0432 43.9396 53.2001 46.7999 53.2001C49.6601 53.2001 52 51.043 52 48.4062C52 45.7693 49.6601 43.6125 46.7999 43.6125Z" fill="#8672FE"/>
</svg>
