<svg width="120" height="83" viewBox="0 0 134 83" fill="none" xmlns="http://www.w3.org/2000/svg">
<path d="M85.6108 36.1583H119.731L123.454 16.4367H81.2688L85.6108 36.1583ZM76.3054 6.57502H132.139C132.139 6.57502 134 6.57502 134 10.6833C134 14.7934 126.555 43.5549 126.555 43.5549C126.555 43.5549 125.935 46.0199 124.695 46.0199H93.0553L91.1945 51.7733H125.315C125.315 51.7733 128.416 51.7733 128.416 55.8816C128.416 59.9899 125.315 64.0999 124.695 64.0999H81.8891C81.8891 64.0999 79.4067 63.2765 79.4067 59.9899C79.4067 56.7032 83.7499 46.0199 83.7499 46.0199H80.0283C80.0283 46.0199 78.7878 46.0199 78.1662 44.3766C77.5459 42.7333 72.5837 16.4367 72.5837 16.4367L62.6567 10.6833C62.6567 10.6833 61.4175 9.86166 61.4175 7.39668C61.4175 4.9317 63.2783 1.64332 63.8986 0.82166C64.5188 0 65.1391 0 65.7594 0C66.3797 0 76.3054 6.57502 76.3054 6.57502Z" fill="#04FFFF"/>
<mask id="mask0_23_327" style="mask-type:luminance" maskUnits="userSpaceOnUse" x="76" y="65" width="14" height="18">
<path d="M76.0449 65.6757H89.4449V82.9999H76.0449V65.6757Z" fill="white"/>
</mask>
<g mask="url(#mask0_23_327)">
<path d="M89.3338 74.3707C89.3338 79.1377 86.4169 82.9999 82.8196 82.9999C79.2223 82.9999 76.3054 79.1377 76.3054 74.3707C76.3054 69.6054 79.2223 65.7433 82.8196 65.7433C86.4169 65.7433 89.3338 69.6054 89.3338 74.3707Z" fill="#04FFFF"/>
</g>
<mask id="mask1_23_327" style="mask-type:luminance" maskUnits="userSpaceOnUse" x="117" y="65" width="14" height="18">
<path d="M117.585 65.6757H130.985V82.9999H117.585V65.6757Z" fill="white"/>
</mask>
<g mask="url(#mask1_23_327)">
<path d="M130.897 74.3707C130.897 79.1377 127.982 82.9999 124.385 82.9999C120.787 82.9999 117.87 79.1377 117.87 74.3707C117.87 69.6054 120.787 65.7433 124.385 65.7433C127.982 65.7433 130.897 69.6054 130.897 74.3707Z" fill="#04FFFF"/>
</g>
<path d="M73.8243 52.595C73.8243 55.8816 69.4811 77.2483 52.7311 77.2483C40.9446 77.2483 39.0825 69.0299 28.5365 69.0299C27.9162 69.0299 27.296 69.0299 27.296 68.2083C27.296 67.3866 27.9162 66.5649 32.8797 66.5649C37.8432 66.5649 46.5284 69.0299 49.0094 69.0299C51.4905 69.0299 57.6946 68.2083 57.6946 63.2766C57.6946 58.3466 50.25 58.3466 49.6297 58.3466C47.7689 58.3466 36.6014 61.6333 32.8797 61.6333C21.7135 61.6333 20.4716 51.7716 5.58246 51.7716C3.72164 51.7716 1.86082 52.595 0.620274 52.595C0 52.595 0 51.7716 0 51.7716C0 50.9499 4.34322 46.02 11.1662 46.02C17.9905 46.02 24.8149 50.9499 31.6392 50.9499C35.3608 50.9499 35.9811 47.6633 35.9811 46.8416C35.9811 46.02 35.9811 41.09 26.6757 41.09C17.3703 41.09 14.8892 42.7333 14.8892 41.09C14.8892 39.5091 26.0554 34.515 31.6392 34.515C39.0825 34.515 42.8054 41.9117 50.25 41.9117C54.5932 41.9117 57.6946 38.625 57.6946 36.1583C57.6946 33.6933 53.9716 30.4067 47.7689 30.4067C45.2865 30.4067 44.046 31.2284 39.704 31.2284C33.5 31.2284 27.9162 27.9417 27.9162 27.1201C27.9162 26.5203 28.5561 26.2967 29.1764 26.2967C29.798 26.2967 30.9404 26.6139 32.4505 26.6139C35.5519 26.6139 45.9068 21.3667 50.25 21.3667C63.8986 21.3667 73.8243 36.98 73.8243 52.595Z" fill="#04FFFF"/>
</svg>